<svg width="256" height="80" viewBox="0 0 256 80" fill="none" xmlns="http://www.w3.org/2000/svg">
<path d="M214.781 79.98C213.781 79.98 213.281 79.48 213.281 78.48V61.56C213.281 61.08 213.301 60.7 213.341 60.42C213.421 60.1 213.661 59.82 214.061 59.58L226.781 52.26V49.26L214.241 42.66C213.601 42.3 213.281 41.7 213.281 40.86V13.86C213.281 13.22 213.321 12.76 213.401 12.48C213.481 12.16 213.761 11.82 214.241 11.46L230.081 0.779999C230.401 0.539997 230.741 0.359999 231.101 0.239998C231.461 0.0799999 231.921 0 232.481 0H253.661C254.661 0 255.161 0.500001 255.161 1.5V19.26C255.161 20.14 254.861 20.74 254.261 21.06L238.541 27.96V31.08L254.261 40.08C254.861 40.36 255.161 41 255.161 42V68.1C255.161 68.42 255.101 68.76 254.981 69.12C254.901 69.44 254.701 69.7 254.381 69.9L235.541 79.26C235.301 79.42 235.001 79.58 234.641 79.74C234.321 79.9 234.001 79.98 233.681 79.98H214.781Z" fill="#548AFF"/>
<path d="M176.249 79.98C175.249 79.98 174.749 79.48 174.749 78.48V24H167.789C166.789 24 166.289 23.5 166.289 22.5V1.5C166.289 0.500001 166.789 0 167.789 0H206.789C207.789 0 208.289 0.500001 208.289 1.5V22.5C208.289 23.5 207.789 24 206.789 24H199.769V78.48C199.769 79.48 199.269 79.98 198.269 79.98H176.249Z" fill="#FFF5B7"/>
<path d="M120.914 79.98C119.914 79.98 119.414 79.48 119.414 78.48V61.56C119.414 61.08 119.434 60.7 119.474 60.42C119.554 60.1 119.794 59.82 120.194 59.58L132.914 52.26V49.26L120.374 42.66C119.734 42.3 119.414 41.7 119.414 40.86V13.86C119.414 13.22 119.454 12.76 119.534 12.48C119.614 12.16 119.894 11.82 120.374 11.46L136.214 0.779999C136.534 0.539997 136.874 0.359999 137.234 0.239998C137.594 0.0799999 138.054 0 138.614 0H159.794C160.794 0 161.294 0.500001 161.294 1.5V19.26C161.294 20.14 160.994 20.74 160.394 21.06L144.674 27.96V31.08L160.394 40.08C160.994 40.36 161.294 41 161.294 42V68.1C161.294 68.42 161.234 68.76 161.114 69.12C161.034 69.44 160.834 69.7 160.514 69.9L141.674 79.26C141.434 79.42 141.134 79.58 140.774 79.74C140.454 79.9 140.134 79.98 139.814 79.98H120.914Z" fill="#66E04B"/>
<path d="M74.3053 79.98C73.3853 79.98 72.5853 79.64 71.9053 78.96L59.9053 66.96C59.2653 66.32 58.9453 65.52 58.9453 64.56V15.36C58.9453 14.44 59.2653 13.64 59.9053 12.96L71.9053 0.960003C72.5853 0.320002 73.3853 0 74.3053 0H98.9053C99.8653 0 100.665 0.320002 101.305 0.960003L113.305 12.96C113.985 13.64 114.325 14.44 114.325 15.36V64.56C114.325 65.52 113.985 66.32 113.305 66.96L101.305 78.96C100.665 79.64 99.8653 79.98 98.9053 79.98H74.3053ZM86.4253 55.98H86.8453C88.4853 55.98 89.3053 54.84 89.3053 52.56V27.36C89.3053 25.12 88.4853 24 86.8453 24H86.4253C84.7453 24 83.9053 25.12 83.9053 27.36V52.56C83.9053 54.84 84.7453 55.98 86.4253 55.98Z" fill="#F3B7FF"/>
<path d="M1.5 79.98C0.5 79.98 0 79.48 0 78.48V1.5C0 0.500001 0.5 0 1.5 0H38.58C39.5 0 40.3 0.320002 40.98 0.960003L52.98 12.96C53.66 13.64 54 14.44 54 15.36V44.76C54 45.72 53.66 46.52 52.98 47.16L40.98 59.16C40.3 59.84 39.5 60.18 38.58 60.18H24.96V78.48C24.96 79.48 24.46 79.98 23.46 79.98H1.5ZM26.46 35.58C28.1 35.58 29.42 35.06 30.42 34.02C31.46 32.98 31.98 31.66 31.98 30.06C31.98 28.46 31.46 27.16 30.42 26.16C29.42 25.12 28.1 24.6 26.46 24.6C24.86 24.6 23.54 25.12 22.5 26.16C21.5 27.16 21 28.46 21 30.06C21 31.66 21.5 32.98 22.5 34.02C23.54 35.06 24.86 35.58 26.46 35.58Z" fill="#FF5F5F"/>
</svg>
